<svg width="40" height="40" viewBox="0 0 40 40" fill="none" xmlns="http://www.w3.org/2000/svg">
<path d="M15.9947 24.9844C13.7456 21.1556 13.7403 17.1751 13.9689 15.323C8.6998 17.8304 5.54683 23.2135 7.66831 28.0388C10.1673 28.2879 13.6712 27.5297 15.9947 24.9844Z" fill="#415167"/>
<path d="M16.5742 25.9104C14.5219 28.0875 10.9967 29.3168 8.30634 29.1543C10.7628 32.7015 17.2973 34.2612 23.1832 30.8386C20.663 30.2266 18.2863 28.4395 16.5742 25.9104Z" fill="#415167"/>
<path d="M22.7313 17.9603C19.2114 14.0611 18.919 10.3406 19.4029 7.89819C15.766 9.98319 13.9902 15.3284 15.4151 20.7764C17.0049 27.0043 22.6568 31.7159 27.9579 29.3438C28.1227 27.5946 27.9047 23.6683 22.7313 17.9603Z" fill="#415167"/>
<path d="M32.5252 16.1895C30.9088 9.98326 25.5121 5.69413 20.5992 7.35129C19.8814 9.6854 19.9824 13.4384 23.5342 17.2618C25.1452 19.1572 29.1276 23.6467 29.0532 28.732C32.3178 26.4358 33.8438 21.3668 32.5252 16.1895Z" fill="#415167"/>
</svg>
